#!OML:ASF E:/inclinewalkrobotboard/Project1/Captureday1/Session1/subject1.ASF
:FULLY-SPECIFIED
:DEGREES
263
root 0 0 0 -1.167973972904721 -2.8470148175347494 -0.8802345571591191
lowerback 10.94700040418033 0.5622072281916082 0.47486673007566094
upperback -1.108553751436098 0.8809680812394514 0.9152604292719045
thorax -7.284040732394464 0.40504545792957336 0.4499130550485726
lowerneck -13.41715122425423 -1.4141296636668903 0.208083149685862
upperneck 19.049129725752316 -1.413922362783867 -2.3384711856231823
head 8.21415439634532 -0.8132337021492548 -1.0000674242951748
rclavicle -4.602519234100011E-16 -2.1227345272241905E-16
rhumerus -11.983495588025324 -6.905288561889562 -67.40590666357855
rradius 42.75082022482141
rwrist 11.913626628399918
rhand -23.53232473643113 -5.180482392389654
rfingers 7.125020000000134
rthumb 3.173380711677946 -35.341439553257544
lclavicle -9.815806015999862E-16 -8.007933550284693E-16
lhumerus -12.430367510369809 -4.0978069185041415 68.72566084066794
lradius 43.63968014053341
lwrist -5.060825811636523
lhand -33.30184597655804 -10.669348731296632
lfingers 7.12502000000013
lthumb -6.596613144726204 18.385588924826813
rfemur -16.852158690356152 0.36005893637097985 22.749705473799033
rtibia 69.08450150576766
rfoot 5.074977915296724 -3.249858720332214
rtoes 10.353197397651414
lfemur 9.544503219966765 -5.1396897510367685 -29.156964558832723
ltibia 9.565745797686347
lfoot -15.489036984012056 0.12725414441043847
ltoes -2.127852748084617
264
root 0 0 0 -1.1593777135937193 -2.848877510361359 -0.8714359665979863
lowerback 10.950116999790634 0.5629554347923268 0.4714546710459521
upperback -1.1189207703597777 0.8812673876819601 0.9105671108484608
thorax -7.297950798047031 0.4054391163397762 0.44610845940817645
lowerneck -13.39323266730979 -1.404077070082874 0.22215840274330417
upperneck 19.047968439780895 -1.3990236837891792 -2.3586553096780616
head 8.209898096504464 -0.8067945670916109 -1.0075007596790322
rclavicle -4.578761739964797E-16 -2.1961407824331115E-16
rhumerus -11.843891293860217 -6.813564415611017 -67.3190514790939
rradius 42.88480451292536
rwrist 11.980584389322177
rhand -23.579600719468242 -5.413028326745556
rfingers 7.125020000000134
rthumb 3.1249688991184277 -35.570714870219774
lclavicle -9.730073790817431E-16 -8.055942486017732E-16
lhumerus -12.128548946076599 -4.170810649059543 68.51078561870979
lradius 43.881729648504574
lwrist -5.227417877825411
lhand -33.40467879254207 -11.220986223367412
lfingers 7.125020000000129
lthumb -6.695709811169241 17.836365393446812
rfemur -21.340108492846287 0.021080107619499522 21.01621203938268
rtibia 68.35629158788552
rfoot 5.528142795541033 -4.244207030956582
rtoes 9.347326926899623
lfemur 11.39622296061403 -4.895992074203086 -29.75694018921417
ltibia 11.192722518932303
lfoot -15.146571853784998 -0.9274713559953285
ltoes -2.6670872333561686
265
root 0 0 0 -1.1511114293486875 -2.8506450829080916 -0.8630123595493269
lowerback 10.953103872767846 0.5636653273121005 0.4682479800442866
upperback -1.1288491833793295 0.8815339135549316 0.9060626616508185
thorax -7.311299019431741 0.40580080764887483 0.4424659607552083
lowerneck -13.37025965087874 -1.394476190217499 0.2356886066368375
upperneck 19.046721664085524 -1.384843538336793 -2.377947548262457
head 8.205775418175872 -0.8006604189464854 -1.0146131490751666
rclavicle -4.560421324343926E-16 -2.282694545202193E-16
rhumerus -11.692262254947103 -6.713774927058166 -67.22473377410637
rradius 43.029676524874404
rwrist 12.053132787634862
rhand -23.630700708581493 -5.664507924016103
rfingers 7.125020000000133
rthumb 3.072762341776574 -35.818988931758426
lclavicle -9.645422131936985E-16 -8.105466530821988E-16
lhumerus -11.805823952136233 -4.2490843542912256 68.28089137207856
lradius 44.140505329421686
lwrist -5.4049180942478
lhand -33.51503091119334 -11.81191617961667
lfingers 7.125020000000127
lthumb -6.801673878620724 17.249148365736758
rfemur -25.061288780264526 -0.04442041412616682 19.669754531466616
rtibia 66.2485368878682
rfoot 5.394585140417444 -5.2460398387632345
rtoes 8.188769706907967
lfemur 13.056400463957365 -4.628477127822102 -30.228417997700177
ltibia 13.056549371936114
lfoot -14.676661641894096 -2.0293994694035162
ltoes -3.291069998032243
266
root 0 0 0 -1.1440702037316504 -2.8521227555415543 -0.8558668427533236
lowerback 10.95562516384749 0.5642401245826989 0.46551129473123903
upperback -1.137247581588691 0.8817458573793818 0.9022582994072696
thorax -7.32263420733048 0.4060910965154747 0.43939649270226894
lowerneck -13.350699077791631 -1.386354036573345 0.24720511249702398
upperneck 19.04551133655372 -1.3729357656601082 -2.3943119801515507
head 8.202242685629999 -0.7954864219742406 -1.020642146524398
rclavicle -4.549758900806951E-16 -2.3691912704382025E-16
rhumerus -11.546002632829019 -6.61745664294247 -67.13367232403735
rradius 43.16907723279131
rwrist 12.123061331233668
rhand -23.679850756685 -5.906315945435223
rfingers 7.1250200000001325
rthumb 3.022701283940706 -36.05811994639739
lclavicle -9.56510018533861E-16 -8.152233385651201E-16
lhumerus -11.488275337952748 -4.326293651651434 68.05449760077488
lradius 44.39488396668016
lwrist -5.57893727998606
lhand -33.62401635355096 -12.394288715266487
lfingers 7.125020000000125
lthumb -6.905987617518611 16.67142163801282
rfemur -28.034463393755104 0.09544729989015943 18.672515121894378
rtibia 63.24086185067167
rfoot 4.855971962792509 -6.200851687509857
rtoes 6.994131409763752
lfemur 14.620669408083495 -4.338283655164471 -30.607278955373253
ltibia 15.164150824219977
lfoot -14.06548843954349 -3.2103460344423698
ltoes -3.9977175407637273
267
root 0 0 0 -1.1388365676566914 -2.8531748934360257 -0.8506009256072653
lowerback 10.957463625845966 0.564618614471115 0.46340688798640106
upperback -1.1434018422697414 0.8818791234027289 0.8994872045347244
thorax -7.331024489403266 0.4062873868641123 0.43716646940225895
lowerneck -13.336151974649479 -1.3803750615703254 0.25574686663090246
upperneck 19.044449546887154 -1.3642973132773597 -2.4064428047760185
head 8.199606644334875 -0.7916969263747191 -1.0251031215878397
rclavicle -4.546358158421723E-16 -2.4460369646889213E-16
rhumerus -11.418685907482605 -6.533759503722935 -67.05434124433854
rradius 43.29018543357118
rwrist 12.183948269489704
rhand -23.722540981131097 -6.11636882341584
rfingers 7.1250200000001325
rthumb 2.9793351507481374 -36.266207854763906
lclavicle -9.489142240667692E-16 -8.193342201021205E-16
lhumerus -11.196321842799781 -4.397468162597111 67.84622195479288
lradius 44.62837820125676
lwrist -5.738361014050595
lhand -33.724557984932936 -12.930466897046125
lfingers 7.1250200000001245
lthumb -7.001988637485466 16.140754422832444
rfemur -30.29239734789553 0.3969572443483398 17.9978313044395
rtibia 59.6245689929182
rfoot 4.016712360788002 -7.078043392564166
rtoes 5.828332094489668
lfemur 16.101247836035142 -4.0268783695690455 -30.906751612318864
ltibia 17.50377322423687
lfoot -13.313355132831846 -4.469546283502044
ltoes -4.760404775947441
